<?xml version="1.0" standalone="no"?><!DOCTYPE svg PUBLIC "-//W3C//DTD SVG 1.1//EN" "http://www.w3.org/Graphics/SVG/1.1/DTD/svg11.dtd"><svg t="1556079825479" class="icon" style="" viewBox="0 0 1024 1024" version="1.1" xmlns="http://www.w3.org/2000/svg" p-id="3009" xmlns:xlink="http://www.w3.org/1999/xlink" width="200" height="200"><defs><style type="text/css"></style></defs><path d="M1024 512.060235C1024 229.906405 794.093595 0 511.939765 0S0 229.906405 0 512.060235c0 155.408732 70.508758 295.21485 180.200575 389.185255 1.330196 1.330196 2.660392 2.660392 5.200314 3.870118C274.17098 979.614954 387.855059 1024 513.269961 1024c122.75451 0 236.438588-44.385046 325.20868-116.224 5.200314-1.330196 9.190902-5.200314 11.730824-9.190902C956.153307 803.284497 1024 666.138771 1024 512.060235zM47.045438 512.060235c0-256.030118 208.98468-465.014797 465.014797-465.014797s465.014797 208.98468 465.014797 465.014797c0 125.414902-49.585359 238.976837-130.615216 322.668758-13.06102-61.438327-52.245752-165.92983-172.46034-233.776523 27.453908-33.984418 43.05485-78.369464 43.05485-125.414902 0-112.353882-91.430484-203.784366-203.784366-203.784366s-203.784366 91.430484-203.784366 203.784366c0 47.045438 16.931137 90.100288 43.05485 125.414902-121.30217 67.846693-160.486902 172.339869-172.219399 233.776523C97.960993 752.368941 47.045438 637.475137 47.045438 512.060235zM355.321307 476.745621c0-86.23017 70.508758-156.738928 156.738928-156.738928s156.738928 70.508758 156.738928 156.738928-70.508758 156.738928-156.738928 156.738928S355.321307 562.975791 355.321307 476.745621zM222.045699 875.123451c2.660392-37.854536 23.461647-165.92983 164.599634-237.768784 35.314614 27.453908 78.369464 43.05485 125.414902 43.05485 47.045438 0 91.430484-16.931137 126.745098-44.385046 139.806118 71.838954 161.939242 197.253856 165.92983 237.768784-79.69966 63.978248-181.530771 103.161307-291.224261 103.161307C402.368418 977.075033 301.745359 939.220497 222.045699 875.123451z" p-id="3010" fill="#515151"></path></svg>