<?xml version="1.0" standalone="no"?><!DOCTYPE svg PUBLIC "-//W3C//DTD SVG 1.1//EN" "http://www.w3.org/Graphics/SVG/1.1/DTD/svg11.dtd"><svg t="1556079642425" class="icon" style="" viewBox="0 0 1024 1024" version="1.1" xmlns="http://www.w3.org/2000/svg" p-id="2128" xmlns:xlink="http://www.w3.org/1999/xlink" width="200" height="200"><defs><style type="text/css"></style></defs><path d="M1011.975 960.664 785.583 759.823c28.026-35.029 50.8-73.962 67.876-116.211 22.961-56.813 34.604-117.132 34.604-179.274 0-62.144-11.644-122.459-34.604-179.273-22.211-54.957-54.027-104.332-94.561-146.751-40.643-42.532-88.014-75.944-140.797-99.307C563.323 14.759 505.137 2.464 445.16 2.464c-59.979 0-118.166 12.294-172.944 36.542-52.783 23.363-100.154 56.775-140.797 99.307-40.536 42.421-72.35 91.794-94.563 146.751C13.894 341.877 2.251 402.194 2.251 464.338c0 62.143 11.643 122.461 34.605 179.274 22.211 54.954 54.027 104.329 94.563 146.749 40.643 42.532 88.014 75.944 140.797 99.307 54.779 24.246 112.965 36.541 172.944 36.541 59.977 0 118.164-12.295 172.941-36.541 43.84-19.405 83.932-45.765 119.552-78.504l227.722 202.025c6.686 5.929 15.002 8.846 23.287 8.846 9.691 0 19.336-3.991 26.275-11.811C1027.809 995.72 1026.48 973.532 1011.975 960.664zM445.161 855.992c-205.503 0-372.693-175.696-372.693-391.654 0-215.961 167.189-391.658 372.693-391.658 205.501 0 372.688 175.697 372.688 391.658C817.849 680.298 650.661 855.992 445.161 855.992z" p-id="2129" fill="#515151"></path></svg>